<svg version="1" xmlns="http://www.w3.org/2000/svg" width="128" height="128" viewBox="0 0 96.000000 96.000000"><path d="M39.4 18.3c-9.4 5.8-18.8 14.3-20 18-.9 2.8-1.4 9.7-.7 11.9.2 1 1.1 1.8 1.8 1.8.9 0 1.2.6.8 1.7-.4 1-.2 1.4.4 1 1.1-.7 4.6 2.6 3.8 3.6-.3.4-.2.5.2.2.6-.5 3.2 2.4 3.3 3.6C29 61 17.2 70 16 70c-.6 0-1 .4-1 1 0 .5-.6 1-1.3 1-.7 0-1.9.8-2.8 1.8-.8 1-3.6 3.1-6.2 4.7l-4.7 3v14.6l7.9-.3c4.4-.1 7.9-.5 7.8-.8-.1-.3.7-1.8 1.7-3.5.9-1.7 1.5-2.2 1.2-1.2-.3.9-.9 2.5-1.2 3.5-.5 1.4-.3 1.4 1-.2.9-1.1 1.6-2.4 1.6-2.9s.7-.3 1.7.4c1.5 1.3 1.5 1.2.3-1.1-1-2.1-1-2.3.1-1.3 1.9 1.8 3.4 1.6 1.9-.2-1.1-1.3-1-1.4.3-1 .8.4 1.8.1 2.3-.6.4-.7.3-1-.4-.5-.6.3-1.3.2-1.6-.3-.7-1.1 1.3-.9 3.4.3.8.5 1.2.6.8.1-1.1-1.1 2-3.8 3.7-3.1.8.3 1.4.2 1.4-.2-.4-2.7.3-4.3 1.9-4 1.1.2 1.7-.3 1.6-1.4-.1-1.1.4-1.4 1.4-1.1 1.1.5 1.3.2.8-.8-.4-.8-.1-.6.7.3.8 1 1.6 1.5 1.9 1.2.3-.3 1.8 2 3.2 5 1.5 3.1 3.5 6 4.6 6.6 1.2.6 1.7 1.6 1.4 2.2-.5.7-.2.8.7.2 2.1-1.3 3.8-1.4 4.6-.2.4.7.1.8-.7.3-.9-.5-1.1-.4-.6.4.6.9 1.1.9 2.4-.1 1.2-1 1.4-1 .8 0-.4.6-.2 1.2.3 1.2.6 0 1.1-.6 1.1-1.3 0-.9.2-.9.8-.1 1 1.6 6.9 1.3 6.9-.3 0-.9-.4-1-1.2-.3-.9.7-1.6.5-2.6-.7-1.1-1.5-1.1-1.6.1-.6 1.1 1 1.8.9 3.5-.7s2.2-1.7 2.2-.6c0 .8-.5 1.2-1 .9-.6-.3-.7-.1-.3.6 1 1.5 2.6.5 2.7-1.7 0-1.1.2-1.2.6-.4.2.6.9 1 1.3.7.5-.3.7-1.1.4-1.9-.3-.7.2-1.3 1.1-1.3.9 0 1.4.6 1.1 1.4-.4.8-.1 1.1.5.7.6-.3.9-1.7.6-3-.3-1.9-.1-2.2 1.2-1.4 2.6 1.3 5.3-.7 4.5-3.3-.6-2.2-.6-2.2 1.1-.2 1.6 2 1.6 2 1.2-.3-.4-1.7-.2-2.1.6-1.4.8.7 1.7.5 2.7-.6 1.3-1.4 1.2-1.5-.3-.9-1.1.4-1.6.3-1.2-.3.3-.6 1.3-1 2.1-1s1.2-.5.9-1c-.4-.6-1.1-.7-1.7-.4-.7.4-.8.2-.4-.4.4-.6 1.3-.9 2.1-.5.8.3 1.5 0 1.5-.6s-.4-1.1-1-1.1c-.5 0-1-.4-1-.9s1-.7 2.3-.4c1.5.3 1.8.2.9-.5-1.5-1-2.4-6.5-1-5.6.5.4.2-.8-.7-2.6-.9-1.8-2.5-3.5-3.6-3.7-1-.3-1.9-.8-1.9-1.2 0-.4-.9-1.7-2.1-3-1.1-1.2-1.8-2.8-1.5-3.6.3-.8.2-1.4-.2-1.4-2.8.5-3.2-.4-.7-1.6 2.6-1.3 2.7-1.4.5-.9-2.4.5-2.4.4-.6-1 1.8-1.5 1.8-1.6.2-1.6-.9 0-1.5-.4-1.1-.9.3-.5 0-1.3-.6-1.6-.5-.4-.8-1.4-.5-2.2.3-.8.2-1.2-.3-.9-.5.3-1.1-.1-1.5-.9-.7-2-6.5-5.5-8-4.9-.7.3-2.1-.4-3.1-1.6-1-1.1-1.4-2-.9-2 .5 0 .5-.4-.1-.8-.5-.4-2-2.2-3.3-3.9-1.8-2.6-1.9-3.1-.5-2.6.9.4.2-.7-1.6-2.4-2.8-2.7-3.8-3.1-9-3.1-4.8 0-6.7.6-10.7 3.1zm42 62.5c.3.5-.1.9-.9.9s-1.2-.4-.9-.9c.3-.4.7-.8.9-.8.2 0 .6.4.9.8z"/><path d="M53 91.9c0 .6.4 1.3 1 1.6.6.3.7-.1.4-.9-.7-1.8-1.4-2.1-1.4-.7z"/></svg>